<svg width="24" height="24" viewBox="0 0 24 24" fill="none" xmlns="http://www.w3.org/2000/svg">
<path d="M20.4748 23.3L16.9998 19.825V20H0.999805V17.2C0.999805 16.6333 1.14564 16.1125 1.4373 15.6375C1.72897 15.1625 2.11647 14.8 2.5998 14.55C3.63314 14.0333 4.68314 13.6458 5.7498 13.3875C6.81647 13.1291 7.8998 13 8.9998 13C9.19981 13 9.40397 13.0041 9.6123 13.0125C9.82064 13.0208 10.0248 13.0333 10.2248 13.05L9.1748 12H8.9998C7.8998 12 6.95814 11.6083 6.1748 10.825C5.39147 10.0416 4.9998 9.09995 4.9998 7.99995V7.82495L0.674805 3.49995L2.0998 2.07495L21.8998 21.875L20.4748 23.3ZM16.6498 13.15C17.4998 13.25 18.2998 13.4208 19.0498 13.6625C19.7998 13.9041 20.4998 14.2 21.1498 14.55C21.7498 14.8833 22.2081 15.2541 22.5248 15.6625C22.8415 16.0708 22.9998 16.5166 22.9998 17V20H22.8748L18.8748 16C18.7248 15.45 18.4623 14.9291 18.0873 14.4375C17.7123 13.9458 17.2331 13.5166 16.6498 13.15ZM8.9998 15C8.06647 15 7.14147 15.1125 6.2248 15.3375C5.30814 15.5625 4.3998 15.9 3.4998 16.35C3.3498 16.4333 3.22897 16.55 3.1373 16.7C3.04564 16.85 2.9998 17.0166 2.9998 17.2V18H14.9998V17.825L12.8248 15.65C12.1915 15.4333 11.554 15.2708 10.9123 15.1625C10.2706 15.0541 9.63314 15 8.9998 15ZM14.0498 11.175C14.3665 10.7083 14.604 10.2083 14.7623 9.67495C14.9206 9.14162 14.9998 8.58328 14.9998 7.99995C14.9998 7.29995 14.879 6.62495 14.6373 5.97495C14.3956 5.32495 14.0498 4.73328 13.5998 4.19995C13.8331 4.11662 14.0665 4.06245 14.2998 4.03745C14.5331 4.01245 14.7665 3.99995 14.9998 3.99995C16.0998 3.99995 17.0415 4.39162 17.8248 5.17495C18.6081 5.95828 18.9998 6.89995 18.9998 7.99995C18.9998 9.09995 18.5873 10.0416 17.7623 10.825C16.9373 11.6083 15.9748 12 14.8748 12L14.0498 11.175ZM12.5998 9.72495L10.9998 8.12495V7.99995C10.9998 7.44995 10.804 6.97912 10.4123 6.58745C10.0206 6.19578 9.5498 5.99995 8.9998 5.99995H8.8748L7.2748 4.39995C7.54147 4.26662 7.81647 4.16662 8.0998 4.09995C8.38314 4.03328 8.68314 3.99995 8.9998 3.99995C10.0998 3.99995 11.0415 4.39162 11.8248 5.17495C12.6081 5.95828 12.9998 6.89995 12.9998 7.99995C12.9998 8.31662 12.9665 8.61662 12.8998 8.89995C12.8331 9.18328 12.7331 9.45828 12.5998 9.72495Z" fill="white"/>
</svg>
