<svg width="280" height="311" viewBox="0 0 280 311" fill="none" xmlns="http://www.w3.org/2000/svg">
<path d="M0 18.5509C0 8.30551 7.61116 0 17 0H263C272.389 0 280 8.30551 280 18.5509V292.449C280 302.695 272.389 311 263 311H17C7.61117 311 0 302.695 0 292.449V18.5509Z" fill="white" fill-opacity="0.12" style="mix-blend-mode:luminosity"/>
<path d="M263 309.363V311H17L17 309.363H263ZM278.5 292.449V18.5509C278.5 9.20952 271.56 1.63685 263 1.63684H17C8.43959 1.63684 1.5 9.20951 1.5 18.5509V292.449C1.5 301.79 8.43959 309.363 17 309.363L17 311C7.75777 311 0.238438 302.952 0.00585938 292.928L0 292.449V18.5509C0 8.30551 7.61116 0 17 0H263L263.438 0.00639391C272.625 0.260192 280 8.46549 280 18.5509V292.449C280 302.535 272.625 310.74 263.438 310.994L263 311V309.363C271.56 309.363 278.5 301.791 278.5 292.449Z" fill="url(#paint0_linear_145_745)"/>
<defs>
<linearGradient id="paint0_linear_145_745" x1="19.6154" y1="-6.89547e-05" x2="178.306" y2="328.915" gradientUnits="userSpaceOnUse">
<stop stop-color="white" stop-opacity="0.4"/>
<stop offset="0.405687" stop-color="white" stop-opacity="0.01"/>
<stop offset="0.574372" stop-color="white" stop-opacity="0.01"/>
<stop offset="1" stop-color="white" stop-opacity="0.1"/>
</linearGradient>
</defs>
</svg>
