<svg width="158" height="40" viewBox="0 0 158 40" fill="none" xmlns="http://www.w3.org/2000/svg">
<path d="M0 20C0 8.95431 8.95431 0 20 0H138C149.046 0 158 8.95431 158 20C158 31.0457 149.046 40 138 40H20C8.9543 40 0 31.0457 0 20Z" fill="url(#paint0_linear_146_3894)"/>
<path d="M138 38.5V40H20L20 38.5H138ZM156.5 20C156.5 9.78273 148.217 1.5 138 1.5H20C9.78273 1.5 1.5 9.78273 1.5 20C1.5 30.2173 9.78273 38.5 20 38.5L20 40L19.4834 39.9932C8.67646 39.7192 0 30.873 0 20C0 8.95431 8.95431 0 20 0H138C149.046 0 158 8.95431 158 20C158 30.873 149.324 39.7192 138.517 39.9932L138 40V38.5C148.217 38.5 156.5 30.2173 156.5 20Z" fill="url(#paint1_linear_146_3894)"/>
<defs>
<linearGradient id="paint0_linear_146_3894" x1="3" y1="44" x2="158" y2="-7.60536e-07" gradientUnits="userSpaceOnUse">
<stop stop-color="#3B4954"/>
<stop offset="1" stop-color="#394248"/>
</linearGradient>
<linearGradient id="paint1_linear_146_3894" x1="13.0605" y1="-3.3345e-07" x2="19.0239" y2="51.3798" gradientUnits="userSpaceOnUse">
<stop stop-color="white" stop-opacity="0.4"/>
<stop offset="0.405687" stop-color="white" stop-opacity="0.01"/>
<stop offset="0.574372" stop-color="white" stop-opacity="0.01"/>
<stop offset="1" stop-color="white" stop-opacity="0.1"/>
</linearGradient>
</defs>
</svg>
