<svg width="280" height="230" viewBox="0 0 280 230" fill="none" xmlns="http://www.w3.org/2000/svg">
<path d="M0 13.7193C0 6.14234 7.61116 0 17 0H263C272.389 0 280 6.14234 280 13.7193V216.281C280 223.858 272.389 230 263 230H17C7.61117 230 0 223.858 0 216.281V13.7193Z" fill="white" fill-opacity="0.12" style="mix-blend-mode:luminosity"/>
<path d="M263 228.789V230H17L17 228.789H263ZM278.5 216.281V13.7193C278.5 6.8109 271.56 1.21053 263 1.21053H17C8.43959 1.21053 1.5 6.81089 1.5 13.7193V216.281C1.5 223.189 8.43959 228.789 17 228.789L17 230C7.75777 230 0.238438 224.048 0.00585938 216.635L0 216.281V13.7193C0 6.14234 7.61116 0 17 0H263L263.438 0.00472862C272.625 0.192425 280 6.26065 280 13.7193V216.281C280 223.739 272.625 229.808 263.438 229.995L263 230V228.789C271.56 228.789 278.5 223.189 278.5 216.281Z" fill="url(#paint0_linear_145_745)"/>
<defs>
<linearGradient id="paint0_linear_145_745" x1="19.6154" y1="-5.09955e-05" x2="114.528" y2="266.005" gradientUnits="userSpaceOnUse">
<stop stop-color="white" stop-opacity="0.4"/>
<stop offset="0.405687" stop-color="white" stop-opacity="0.01"/>
<stop offset="0.574372" stop-color="white" stop-opacity="0.01"/>
<stop offset="1" stop-color="white" stop-opacity="0.1"/>
</linearGradient>
</defs>
</svg>
