<svg width="280" height="275" viewBox="0 0 280 275" fill="none" xmlns="http://www.w3.org/2000/svg">
<path d="M0 16.4035C0 7.3441 7.61116 0 17 0H263C272.389 0 280 7.3441 280 16.4035V258.596C280 267.656 272.389 275 263 275H17C7.61117 275 0 267.656 0 258.596V16.4035Z" fill="white" fill-opacity="0.12" style="mix-blend-mode:luminosity"/>
<path d="M263 273.553V275H17L17 273.553H263ZM278.5 258.596V16.4035C278.5 8.14346 271.56 1.44737 263 1.44737H17C8.43959 1.44737 1.5 8.14346 1.5 16.4035V258.596C1.5 266.857 8.43959 273.553 17 273.553L17 275C7.75777 275 0.238438 267.883 0.00585938 259.02L0 258.596V16.4035C0 7.3441 7.61116 0 17 0H263L263.438 0.00565378C272.625 0.230074 280 7.48556 280 16.4035V258.596C280 267.514 272.625 274.77 263.438 274.994L263 275V273.553C271.56 273.553 278.5 266.857 278.5 258.596Z" fill="url(#paint0_linear_384_648)"/>
<defs>
<linearGradient id="paint0_linear_384_648" x1="19.6154" y1="-6.09728e-05" x2="149.023" y2="303.333" gradientUnits="userSpaceOnUse">
<stop stop-color="white" stop-opacity="0.4"/>
<stop offset="0.405687" stop-color="white" stop-opacity="0.01"/>
<stop offset="0.574372" stop-color="white" stop-opacity="0.01"/>
<stop offset="1" stop-color="white" stop-opacity="0.1"/>
</linearGradient>
</defs>
</svg>
