<svg width="16" height="16" viewBox="0 0 16 16" fill="none" xmlns="http://www.w3.org/2000/svg">
<path d="M13.1998 15.0667L11.1831 13.05C10.9053 13.2278 10.6109 13.3806 10.2998 13.5084C9.98866 13.6361 9.66644 13.7389 9.33311 13.8167V12.45C9.48866 12.3945 9.64144 12.3389 9.79144 12.2834C9.94144 12.2278 10.0831 12.1611 10.2164 12.0834L7.99977 9.8667V13.3334L4.66644 10H1.99977V6.00003H4.13311L0.933105 2.80003L1.86644 1.8667L14.1331 14.1334L13.1998 15.0667ZM13.0664 11.2L12.0998 10.2334C12.2887 9.88892 12.4303 9.52781 12.5248 9.15003C12.6192 8.77225 12.6664 8.38337 12.6664 7.98337C12.6664 6.93892 12.3609 6.00559 11.7498 5.18337C11.1387 4.36114 10.3331 3.80559 9.33311 3.5167V2.15003C10.7109 2.46114 11.8331 3.15837 12.6998 4.2417C13.5664 5.32503 13.9998 6.57226 13.9998 7.98337C13.9998 8.57226 13.9192 9.13892 13.7581 9.68337C13.597 10.2278 13.3664 10.7334 13.0664 11.2ZM10.8331 8.9667L9.33311 7.4667V5.30003C9.85533 5.54448 10.2637 5.91114 10.5581 6.40003C10.8526 6.88892 10.9998 7.42226 10.9998 8.00003C10.9998 8.1667 10.9859 8.33059 10.9581 8.4917C10.9303 8.65281 10.8887 8.81114 10.8331 8.9667ZM7.99977 6.13337L6.26644 4.40003L7.99977 2.6667V6.13337ZM6.66644 10.1V8.53337L5.46644 7.33337H3.33311V8.6667H5.23311L6.66644 10.1Z" fill="#C4C7C5"/>
</svg>
