<svg width="16" height="16" viewBox="0 0 16 16" fill="none" xmlns="http://www.w3.org/2000/svg">
<path d="M8.33333 7.96663C8.65556 7.61107 8.90278 7.20552 9.075 6.74996C9.24722 6.2944 9.33333 5.82218 9.33333 5.33329C9.33333 4.8444 9.24722 4.37218 9.075 3.91663C8.90278 3.46107 8.65556 3.05551 8.33333 2.69996C9 2.78885 9.55556 3.08329 10 3.58329C10.4444 4.08329 10.6667 4.66663 10.6667 5.33329C10.6667 5.99996 10.4444 6.58329 10 7.08329C9.55556 7.58329 9 7.87774 8.33333 7.96663ZM12 13.3333V11.3333C12 10.9333 11.9111 10.5527 11.7333 10.1916C11.5556 9.83052 11.3222 9.51107 11.0333 9.23329C11.6 9.43329 12.125 9.69163 12.6083 10.0083C13.0917 10.325 13.3333 10.7666 13.3333 11.3333V13.3333H12ZM16 7.33329H12V5.99996H16V7.33329ZM5.33333 7.99996C4.6 7.99996 3.97222 7.73885 3.45 7.21663C2.92778 6.6944 2.66667 6.06663 2.66667 5.33329C2.66667 4.59996 2.92778 3.97218 3.45 3.44996C3.97222 2.92774 4.6 2.66663 5.33333 2.66663C6.06667 2.66663 6.69444 2.92774 7.21667 3.44996C7.73889 3.97218 8 4.59996 8 5.33329C8 6.06663 7.73889 6.6944 7.21667 7.21663C6.69444 7.73885 6.06667 7.99996 5.33333 7.99996ZM0 13.3333V11.4666C0 11.0888 0.0972222 10.7416 0.291667 10.425C0.486111 10.1083 0.744444 9.86663 1.06667 9.69996C1.75556 9.35552 2.45556 9.09718 3.16667 8.92496C3.87778 8.75274 4.6 8.66663 5.33333 8.66663C6.06667 8.66663 6.78889 8.75274 7.5 8.92496C8.21111 9.09718 8.91111 9.35552 9.6 9.69996C9.92222 9.86663 10.1806 10.1083 10.375 10.425C10.5694 10.7416 10.6667 11.0888 10.6667 11.4666V13.3333H0ZM5.33333 6.66663C5.7 6.66663 6.01389 6.53607 6.275 6.27496C6.53611 6.01385 6.66667 5.69996 6.66667 5.33329C6.66667 4.96663 6.53611 4.65274 6.275 4.39163C6.01389 4.13051 5.7 3.99996 5.33333 3.99996C4.96667 3.99996 4.65278 4.13051 4.39167 4.39163C4.13056 4.65274 4 4.96663 4 5.33329C4 5.69996 4.13056 6.01385 4.39167 6.27496C4.65278 6.53607 4.96667 6.66663 5.33333 6.66663ZM1.33333 12H9.33333V11.4666C9.33333 11.3444 9.30278 11.2333 9.24167 11.1333C9.18056 11.0333 9.1 10.9555 9 10.9C8.4 10.6 7.79444 10.375 7.18333 10.225C6.57222 10.075 5.95556 9.99996 5.33333 9.99996C4.71111 9.99996 4.09444 10.075 3.48333 10.225C2.87222 10.375 2.26667 10.6 1.66667 10.9C1.56667 10.9555 1.48611 11.0333 1.425 11.1333C1.36389 11.2333 1.33333 11.3444 1.33333 11.4666V12Z" fill="#B1BFD1"/>
</svg>
